<?xml version="1.0" encoding="utf-8"?>
<!-- Generator: Adobe Illustrator 16.0.0, SVG Export Plug-In . SVG Version: 6.00 Build 0)  -->
<!DOCTYPE svg PUBLIC "-//W3C//DTD SVG 1.1//EN" "http://www.w3.org/Graphics/SVG/1.1/DTD/svg11.dtd">
<svg version="1.1" xmlns="http://www.w3.org/2000/svg" xmlns:xlink="http://www.w3.org/1999/xlink" x="0px" y="0px" width="270px"
	 height="312px" viewBox="0 0 270 312" enable-background="new 0 0 270 312" xml:space="preserve">
<g id="Layer_1">
	<path fill="#EA3D3D" d="M166,292.403"/>
	<path fill="#0DFF89" d="M222.92,85.002c-1.036-2.388-2.581-5.011-4.918-7.523c-6.998-7.521-51.986-55.866-51.986-55.866
		s-3.785-4.066-10.046-6.611C153.119,13.843,149.755,13,146,13c-12,0-116.375,0-116.375,0S12,13,12,30.5c0,13.608,0,92.208,0,126.5
		c0,9.808,0,16,0,16v113.5c0,0,0,14.5,17,14.5s105.037,0,117,0c3.751,0,7.114-0.846,9.967-2.006
		c6.245-2.54,10.033-6.591,10.033-6.591l52-55.881c0,0,2.837-3.06,4.899-7.529c1.175-2.546,2.101-5.546,2.101-8.709
		c0-4.199,0-33.769,0-63.284c0-31.743,0-63.426,0-63.426S224.988,89.765,222.92,85.002z"/>
</g>
<g id="second_D_original" display="none">
	<g display="inline">
		<path fill="#0DFF89" d="M498.899,228.993c1.175-2.546,2.101-5.546,2.101-8.709c0-4.199,0-33.769,0-63.284H288L498.899,228.993z"/>
		<path fill="#0DFF89" d="M498.92,85.002L288,157h213c0-31.743,0-63.426,0-63.426S500.988,89.765,498.92,85.002z"/>
	</g>
	<g display="inline">
		<path fill="#0C9FE8" d="M288,173v113.5c0,0,0,14.5,17,14.5s105.037,0,117,0c3.751,0,7.114-0.846,9.967-2.006L288,251.055
			C288,260.862,288,173,288,173z"/>
		<path fill="#0CE8BA" d="M288,157v94.055l143.967,47.939c6.245-2.54,10.033-6.591,10.033-6.591l52-55.881
			c0,0,2.837-3.06,4.899-7.529L288,157z"/>
	</g>
	<path display="inline" fill="#0CE8BA" d="M494.002,77.479c-6.998-7.521-51.986-55.866-51.986-55.866s-3.785-4.066-10.046-6.611
		L288,62.667V157l210.92-71.998C497.884,82.614,496.339,79.991,494.002,77.479z"/>
	<path display="inline" fill="#0C9FE8" d="M422,13c-12,0-116.375,0-116.375,0S288,13,288,30.5c0,13.608,0-2.125,0,32.167
		l143.97-47.665C429.119,13.843,425.755,13,422,13z"/>
</g>
<g id="second_D_differect" display="none">
	<path display="inline" fill="#0CE8BA" d="M422,13c-12,0-116.375,0-116.375,0S288,13,288,30.5c0,13.608,0-2.125,0,32.167
		l143.97-47.665C429.119,13.843,425.755,13,422,13z"/>
	<path display="inline" fill="#0DFF89" d="M494.002,77.479c-6.998-7.521-51.986-55.866-51.986-55.866s-3.785-4.066-10.046-6.611
		L288,62.667V157l210.92-71.998C497.884,82.614,496.339,79.991,494.002,77.479z"/>
	<g display="inline">
		<path fill="#0CE8BA" d="M288,173v113.5c0,0,0,14.5,17,14.5s105.037,0,117,0c3.751,0,7.114-0.846,9.967-2.006L288,251.055
			C288,260.862,288,173,288,173z"/>
		<path fill="#0DFF89" d="M288,157v94.055l143.967,47.939c6.245-2.54,10.033-6.591,10.033-6.591l52-55.881
			c0,0,2.837-3.06,4.899-7.529L288,157z"/>
	</g>
	<g display="inline">
		<path fill="#0C9FE8" d="M498.899,228.993c1.175-2.546,2.101-5.546,2.101-8.709c0-4.199,0-33.769,0-63.284H288L498.899,228.993z"/>
		<path fill="#0C9FE8" d="M498.92,85.002L288,157h213c0-31.743,0-63.426,0-63.426S500.988,89.765,498.92,85.002z"/>
	</g>
</g>
<g id="number_2">
	<path fill="#0DFF89" d="M233.654,58l9.258-8.786c2.188-2.109,4.082-3.931,5.684-5.702c1.602-1.771,2.93-3.423,3.984-5.077
		c1.055-1.653,1.842-3.284,2.363-4.951c0.521-1.666,0.781-3.461,0.781-5.415c0-2.317-0.371-4.393-1.113-6.243
		c-0.742-1.849-1.791-3.408-3.145-4.684c-1.354-1.275-2.963-2.25-4.824-2.928c-1.862-0.677-3.926-1.015-6.191-1.015
		c-3.334,0-6.257,0.613-8.77,1.836v0c-2.514,1.225-4.733,2.852-6.66,4.883l3.75,4.492c0,0,2.727-2.615,5.378-3.979
		c1.642-0.796,3.438-1.216,5.403-1.216c1.562,0,2.903,0.248,4.023,0.742c1.119,0.495,2.031,1.172,2.734,2.031
		s1.224,1.855,1.562,2.988c0.338,1.133,0.508,2.324,0.508,3.574c0,1.328-0.131,2.565-0.391,3.711
		c-0.261,1.146-0.769,2.363-1.523,3.652c-0.756,1.289-1.811,2.715-3.164,4.277c-1.354,1.562-3.025,3.412-5.187,5.547L225,58v7h33v-7
		H233.654z"/>
</g>
<g id="drawlines" display="none">
	<polyline display="inline" fill="none" stroke="#E50E89" stroke-miterlimit="10" points="433.875,13 12,157 434,301 	"/>
</g>
</svg>
