<?xml version="1.0" encoding="utf-8"?>
<!-- Generator: Adobe Illustrator 16.0.0, SVG Export Plug-In . SVG Version: 6.00 Build 0)  -->
<!DOCTYPE svg PUBLIC "-//W3C//DTD SVG 1.1//EN" "http://www.w3.org/Graphics/SVG/1.1/DTD/svg11.dtd">
<svg version="1.1" xmlns="http://www.w3.org/2000/svg" xmlns:xlink="http://www.w3.org/1999/xlink" x="0px" y="0px" width="270px"
	 height="312px" viewBox="0 0 270 312" enable-background="new 0 0 270 312" xml:space="preserve">
<g id="d-shape">
	<path class="d-path" fill="#EA3D3D" d="M166,292.403"/>
	<path class="d-path" fill="#0C9FE8" d="M146,13c-12,0-116.375,0-116.375,0S12,13,12,30.5c0,13.608,0,92.208,0,126.5L155.97,15.002
		C153.119,13.843,149.755,13,146,13z"/>
	<path class="d-path" fill="#0CE8BA" d="M218.002,77.479c-6.998-7.521-51.986-55.866-51.986-55.866s-3.785-4.066-10.046-6.611L12,157l210.92-71.998
		C221.884,82.614,220.339,79.991,218.002,77.479z"/>
	<g>
		<path class="d-path" fill="#0C9FE8" d="M12,173v113.5c0,0,0,14.5,17,14.5s105.037,0,117,0c3.751,0,7.114-0.846,9.967-2.006L12,157
			C12,166.808,12,173,12,173z"/>
		<path class="d-path" fill="#0CE8BA" d="M12,157l143.967,141.994c6.245-2.54,10.033-6.591,10.033-6.591l52-55.881c0,0,2.837-3.06,4.899-7.529
			L12,157z"/>
	</g>
	<g>
		<path class="d-path" fill="#0DFF89" d="M222.899,228.993c1.175-2.546,2.101-5.546,2.101-8.709c0-4.199,0-33.769,0-63.284H12L222.899,228.993z"/>
		<path class="d-path" fill="#0DFF89" d="M222.92,85.002L12,157h213c0-31.743,0-63.426,0-63.426S224.988,89.765,222.92,85.002z"/>
	</g>
</g>
<g id="number_2">
	<path fill="#0CE8BA" d="M239.553,19.216c1.562,0,2.903,0.248,4.023,0.742c1.119,0.495,2.031,1.172,2.734,2.031
		s1.224,1.855,1.562,2.988c0.338,1.133,0.508,2.324,0.508,3.574c0,1.328-0.131,2.565-0.391,3.711l3.477-15.121L239.553,19.216z"/>
	<path fill="#0CE8BA" d="M252.58,38.435c1.055-1.653,1.842-3.284,2.363-4.951c0.521-1.666,0.781-3.461,0.781-5.415
		c0-2.317-0.371-4.393-1.113-6.243c-0.742-1.849-1.791-3.408-3.145-4.684l-3.477,15.121l0.605,11.249
		C250.197,41.741,251.525,40.089,252.58,38.435z"/>
	<path fill="#0CE8BA" d="M247.99,32.263c-0.261,1.146-0.769,2.363-1.523,3.652c-0.756,1.289-1.811,2.715-3.164,4.277
		c-1.354,1.562-3.025,3.412-5.187,5.547L225,58l23.596-14.488L247.99,32.263z"/>
	<path fill="#0DFF89" d="M242.912,49.214c2.188-2.109,4.082-3.931,5.684-5.702L225,58h8.654L242.912,49.214z"/>
	<g>
		<polygon fill="#0DFF89" points="233.654,58 225,58 225,65 258,58 		"/>
		<polygon fill="#0DFF89" points="225,65 258,65 258,58 		"/>
	</g>
	<path fill="#0C9FE8" d="M246.643,14.214c-1.862-0.677-3.926-1.015-6.191-1.015c-3.334,0-6.257,0.613-8.77,1.836v0
		c-2.514,1.225-4.733,2.852-6.66,4.883l3.75,4.492c1.484-1.536,3.111-2.786,4.883-3.75c1.771-0.963,3.736-1.445,5.898-1.445
		l11.914-2.074C250.112,15.867,248.504,14.892,246.643,14.214z"/>
	<path fill="#0CE8BA" d="M234.929,20.065l-8.474,1.572l2.316,2.775C228.771,24.412,232.062,21.25,234.929,20.065z"/>
</g>
</svg>
